<svg width="60" height="60" viewBox="0 0 60 60" fill="none" xmlns="http://www.w3.org/2000/svg">
<g clip-path="url(#clip0)">
<path d="M30 60C46.5686 60 60 46.5686 60 30C60 13.4314 46.5686 0 30 0C13.4314 0 0 13.4314 0 30C0 46.5686 13.4314 60 30 60Z" fill="#F0F0F0"/>
<path d="M6.20153 11.7354C3.84501 14.8013 2.0681 18.3351 1.03345 22.1741H16.6402L6.20153 11.7354Z" fill="#0052B4"/>
<path d="M58.9665 22.174C57.9319 18.3351 56.1549 14.8013 53.7985 11.7354L43.36 22.174H58.9665Z" fill="#0052B4"/>
<path d="M1.03345 37.8264C2.06821 41.6652 3.84513 45.199 6.20153 48.2649L16.6399 37.8264H1.03345Z" fill="#0052B4"/>
<path d="M48.2646 6.20165C45.1987 3.84513 41.665 2.06821 37.826 1.03345V16.6401L48.2646 6.20165Z" fill="#0052B4"/>
<path d="M11.7355 53.7985C14.8015 56.155 18.3352 57.9319 22.1741 58.9667V43.3601L11.7355 53.7985Z" fill="#0052B4"/>
<path d="M22.1739 1.03345C18.3351 2.06821 14.8013 3.84513 11.7355 6.20153L22.1739 16.64V1.03345Z" fill="#0052B4"/>
<path d="M37.8262 58.9667C41.665 57.9319 45.1988 56.155 48.2647 53.7986L37.8262 43.3601V58.9667Z" fill="#0052B4"/>
<path d="M43.36 37.8264L53.7985 48.265C56.1549 45.1992 57.9319 41.6652 58.9665 37.8264H43.36Z" fill="#0052B4"/>
<path d="M59.7461 26.087H33.9132H33.9131V0.253945C32.6321 0.0871875 31.3262 0 30 0C28.6736 0 27.3679 0.0871875 26.087 0.253945V26.0868V26.0869H0.253945C0.0871875 27.3679 0 28.6738 0 30C0 31.3264 0.0871875 32.6321 0.253945 33.913H26.0868H26.0869V59.7461C27.3679 59.9128 28.6736 60 30 60C31.3262 60 32.6321 59.9129 33.913 59.7461V33.9132V33.9131H59.7461C59.9128 32.6321 60 31.3264 60 30C60 28.6738 59.9128 27.3679 59.7461 26.087Z" fill="#D80027"/>
<path d="M37.8262 37.8263L51.2132 51.2133C51.8289 50.5979 52.4163 49.9544 52.9766 49.2873L41.5155 37.8262H37.8262V37.8263Z" fill="#D80027"/>
<path d="M22.1739 37.8264H22.1736L8.78674 51.2133C9.40221 51.829 10.0457 52.4164 10.7127 52.9768L22.1739 41.5154V37.8264Z" fill="#D80027"/>
<path d="M22.1739 22.174V22.1738L8.78688 8.78662C8.17117 9.40209 7.58383 10.0456 7.02344 10.7126L18.4847 22.1739H22.1739V22.174Z" fill="#D80027"/>
<path d="M37.8262 22.174L51.2133 8.78676C50.5979 8.17106 49.9544 7.58371 49.2873 7.02344L37.8262 18.4847V22.174Z" fill="#D80027"/>
<mask id="mask0" mask-type="alpha" maskUnits="userSpaceOnUse" x="-19" y="-19" width="64" height="80">
<path d="M17.1137 60.0263L44.6763 -3.02002L8.69541 -18.7501L-18.8672 44.2961L17.1137 60.0263Z" fill="#C4C4C4"/>
</mask>
<g mask="url(#mask0)">
<path d="M30 60C46.5686 60 60 46.5686 60 30C60 13.4314 46.5686 0 30 0C13.4314 0 0 13.4314 0 30C0 46.5686 13.4314 60 30 60Z" fill="#F0F0F0"/>
<path d="M28.6957 29.9999H60C60 27.2922 59.639 24.6691 58.9665 22.1738H28.6957V29.9999Z" fill="#D80027"/>
<path d="M28.6957 14.3479H55.5968C53.7603 11.3511 51.4122 8.70235 48.6745 6.52173H28.6957V14.3479Z" fill="#D80027"/>
<path d="M30 60C37.0604 60 43.5499 57.5597 48.6745 53.4783H11.3254C16.45 57.5597 22.9395 60 30 60Z" fill="#D80027"/>
<path d="M4.40317 45.6521H55.5968C57.0711 43.2463 58.2145 40.6166 58.9665 37.8259H1.03345C1.78544 40.6166 2.92884 43.2463 4.40317 45.6521Z" fill="#D80027"/>
<path d="M13.8966 4.68492H16.6304L14.0875 6.53238L15.0588 9.52172L12.516 7.67426L9.97312 9.52172L10.8122 6.93926C8.5732 8.8043 6.61078 10.9894 4.99359 13.4241H5.86957L4.25086 14.6C3.99867 15.0207 3.7568 15.4481 3.525 15.8818L4.29797 18.2609L2.85586 17.2131C2.49738 17.9726 2.16949 18.7492 1.87477 19.542L2.72637 22.1632H5.86957L3.3266 24.0107L4.29797 27L1.75512 25.1525L0.231914 26.2593C0.0794531 27.4848 0 28.7331 0 30H30C30 13.4316 30 11.4783 30 0C24.0736 0 18.549 1.71914 13.8966 4.68492ZM15.0588 27L12.516 25.1525L9.97312 27L10.9445 24.0107L8.40152 22.1632H11.5447L12.516 19.1739L13.4872 22.1632H16.6304L14.0875 24.0107L15.0588 27ZM14.0875 15.2715L15.0588 18.2609L12.516 16.4134L9.97312 18.2609L10.9445 15.2715L8.40152 13.4241H11.5447L12.516 10.4347L13.4872 13.4241H16.6304L14.0875 15.2715ZM25.8197 27L23.2768 25.1525L20.734 27L21.7054 24.0107L19.1624 22.1632H22.3056L23.2768 19.1739L24.2481 22.1632H27.3913L24.8483 24.0107L25.8197 27ZM24.8483 15.2715L25.8197 18.2609L23.2768 16.4134L20.734 18.2609L21.7054 15.2715L19.1624 13.4241H22.3056L23.2768 10.4347L24.2481 13.4241H27.3913L24.8483 15.2715ZM24.8483 6.53238L25.8197 9.52172L23.2768 7.67426L20.734 9.52172L21.7054 6.53238L19.1624 4.68492H22.3056L23.2768 1.69559L24.2481 4.68492H27.3913L24.8483 6.53238Z" fill="#0052B4"/>
</g>
</g>
<defs>
<clipPath id="clip0">
<rect width="60" height="60" fill="white"/>
</clipPath>
</defs>
</svg>
