<svg width="72" height="72" viewBox="0 0 72 72" fill="none" xmlns="http://www.w3.org/2000/svg">
<path d="M25.3699 38.5199C25.0856 38.432 24.7771 38.5002 24.5574 38.6991L19.2849 43.4581C19.0032 43.6966 18.9307 44.0991 19.0838 44.434L24.9324 57.2171C25.0892 57.5603 25.4542 57.758 25.8273 57.702C26.0141 57.6742 26.1809 57.5848 26.3057 57.4561C26.4294 57.3285 26.5131 57.162 26.5363 56.9755L27.1971 51.7107L29.271 50.2823C29.6089 50.049 29.73 49.6058 29.5548 49.2318C27.9761 45.8553 26.7609 42.4546 25.9424 39.1264C25.8711 38.8379 25.6536 38.607 25.3699 38.5199ZM27.7276 49.2934L25.9263 50.5341C25.7299 50.67 25.5999 50.8842 25.5694 51.1221L25.2308 53.8193L20.8749 44.2989L24.6586 40.8828C25.4254 43.6672 26.4546 46.4876 27.7276 49.2934Z" fill="url(#paint0_linear)"/>
<path d="M52.5552 42.988L47.1214 38.3797C46.8937 38.1872 46.583 38.1278 46.3018 38.2236C46.0212 38.3189 45.8111 38.5551 45.7505 38.8459C45.046 42.1962 43.9486 45.6291 42.4865 49.0486C42.3241 49.4261 42.4594 49.867 42.8063 50.0905L44.9282 51.4595L45.7686 56.7025C45.8288 57.0752 46.1279 57.3638 46.5027 57.4093C46.77 57.4419 47.0296 57.3451 47.209 57.16C47.2805 57.0863 47.3388 56.9983 47.3823 56.8999L52.7895 43.9576C52.9312 43.6187 52.836 43.2262 52.5552 42.988ZM46.9651 53.5112L46.5341 50.8249C46.4961 50.5886 46.3589 50.3782 46.1567 50.248L44.3142 49.0593C45.491 46.2183 46.4224 43.3707 47.0932 40.5661L50.9922 43.8722L46.9651 53.5112Z" fill="url(#paint1_linear)"/>
<path d="M35.2047 36.3969L31.2545 40.4727C31.0417 40.6923 30.9654 41.0102 31.054 41.3037L35.3157 55.355C35.427 55.7209 35.7713 55.9678 36.153 55.9553C36.3766 55.9479 36.582 55.8526 36.7297 55.7001C36.8341 55.5924 36.9105 55.4565 36.9449 55.3021L40.2742 40.7027C40.3397 40.4154 40.2504 40.1141 40.038 39.9084L36.3976 36.3802C36.0628 36.0555 35.5283 36.0631 35.2047 36.3969ZM38.524 40.7869L36.007 51.8251L32.8128 41.2942L32.8121 41.2936L35.8319 38.1778L38.524 40.7869Z" fill="url(#paint2_linear)"/>
<path d="M35.7331 0.597326C35.4136 0.335801 34.9531 0.342243 34.6427 0.612747C34.4323 0.798282 13.7315 19.3662 28.0264 49.9417C28.1677 50.244 28.4722 50.4348 28.8051 50.43L34.4776 50.3498C34.7437 50.3461 34.9885 50.2173 35.1465 50.0033C35.3015 49.7887 35.347 49.5136 35.2692 49.2599L32.814 41.2918L35.832 38.1778L38.5313 40.7939L36.7631 49.2883C36.7113 49.5396 36.7761 49.8006 36.9394 49.9987C37.1027 50.1969 37.3474 50.3098 37.604 50.3062L43.2765 50.226C43.5044 50.2227 43.7157 50.1284 43.8688 49.9705C43.9391 49.8979 43.9973 49.8125 44.038 49.7158C57.2775 18.7492 35.9504 0.775065 35.7331 0.597326ZM43.4221 14.2034C46.6324 21.4312 49.086 33.229 42.6988 48.5471L38.6307 48.6046L40.2788 40.6881C40.3371 40.4046 40.2468 40.1105 40.0387 39.9088L36.3983 36.3807C36.0634 36.0561 35.5289 36.0636 35.2053 36.3975L31.2539 40.4745C31.04 40.6953 30.9643 41.015 31.0546 41.309L33.326 48.6801L29.3253 48.7361C17.2935 22.3962 32.1377 5.49442 35.2216 2.40099C36.6583 3.7499 40.5772 7.79907 43.4221 14.2034Z" fill="url(#paint3_linear)"/>
<path d="M36.8402 51.9066C36.5382 51.8686 36.2504 51.9954 36.0735 52.2217C35.8877 52.0006 35.5963 51.8824 35.2963 51.9284C33.7207 52.1703 32.3498 53.1245 31.5336 54.547C30.6681 56.0578 30.5366 57.8519 31.1747 59.4696L35.6005 70.6946C35.7296 71.0227 36.0483 71.2363 36.3996 71.231C36.6281 71.2281 36.8394 71.1325 36.9918 70.9755C37.074 70.8905 37.1384 70.7878 37.18 70.6721L41.2179 59.3274C41.8002 57.6932 41.6072 55.9037 40.6904 54.418C39.8275 53.0199 38.424 52.1043 36.8402 51.9066ZM39.2556 55.301C39.9019 56.3473 40.0375 57.6072 39.6289 58.7572L36.3439 67.9851L32.7435 58.8541C32.2951 57.7167 32.3879 56.453 32.998 55.389C33.1585 55.1093 33.3492 54.8566 33.5649 54.634C33.9301 54.2571 34.3678 53.967 34.8504 53.7836L35.3146 55.3503C35.4222 55.7139 35.7595 55.9621 36.1382 55.9562C36.5182 55.9514 36.8461 55.6932 36.9406 55.3273L37.3503 53.7476C38.1257 54.0183 38.7985 54.5611 39.2556 55.301Z" fill="url(#paint4_linear)"/>
<path d="M35.7335 0.597973C35.4141 0.336445 34.9535 0.342959 34.6432 0.613394C34.3957 0.831052 28.5351 6.02567 25.1908 15.5733C25.0992 15.8329 25.1417 16.1217 25.3031 16.3462C25.4645 16.5706 25.7257 16.7017 26.0012 16.6978L44.9219 16.4302C45.1474 16.427 45.3599 16.3339 45.5142 16.1748C45.5487 16.1391 45.5803 16.1004 45.6088 16.0589C45.7624 15.83 45.7944 15.5408 45.6944 15.2833C42.0248 5.83426 35.9883 0.807339 35.7335 0.597973ZM43.6617 14.7596L27.2034 14.9923C29.8383 8.1836 33.7948 3.81958 35.2197 2.39804C36.6938 3.77984 40.7889 8.01275 43.6617 14.7596Z" fill="url(#paint5_linear)"/>
<path d="M35.5018 18.8962C31.4897 18.9529 28.2824 22.2622 28.3512 26.274C28.4201 30.2859 31.7394 33.5029 35.7514 33.4462C37.7575 33.4184 39.5622 32.5762 40.8566 31.2406C42.1516 29.9043 42.9358 28.0742 42.9019 26.0683C42.8331 22.0565 39.5137 18.8394 35.5018 18.8962ZM41.215 26.0921C41.2679 29.1734 38.8039 31.7157 35.7225 31.7593C32.641 31.8029 30.091 29.3314 30.0381 26.2501C30.0117 24.71 30.6146 23.3037 31.609 22.2777C32.6033 21.2519 33.9901 20.6052 35.5308 20.5828C38.6121 20.5394 41.1622 23.0108 41.215 26.0921Z" fill="url(#paint6_linear)"/>
<defs>
<linearGradient id="paint0_linear" x1="19.9312" y1="42.7858" x2="30.5497" y2="53.0771" gradientUnits="userSpaceOnUse">
<stop stop-color="#8000FF"/>
<stop offset="1" stop-color="#CC00FF"/>
</linearGradient>
<linearGradient id="paint1_linear" x1="41.7547" y1="42.7824" x2="51.7525" y2="52.4721" gradientUnits="userSpaceOnUse">
<stop stop-color="#8000FF"/>
<stop offset="1" stop-color="#CC00FF"/>
</linearGradient>
<linearGradient id="paint2_linear" x1="30.7506" y1="40.9926" x2="41.1838" y2="51.1044" gradientUnits="userSpaceOnUse">
<stop stop-color="#8000FF"/>
<stop offset="1" stop-color="#CC00FF"/>
</linearGradient>
<linearGradient id="paint3_linear" x1="20.9518" y1="14.696" x2="50.3975" y2="43.2342" gradientUnits="userSpaceOnUse">
<stop stop-color="#8000FF"/>
<stop offset="1" stop-color="#CC00FF"/>
</linearGradient>
<linearGradient id="paint4_linear" x1="30.6438" y1="55.2197" x2="41.7912" y2="66.0234" gradientUnits="userSpaceOnUse">
<stop stop-color="#8000FF"/>
<stop offset="1" stop-color="#CC00FF"/>
</linearGradient>
<linearGradient id="paint5_linear" x1="28.6977" y1="6.68712" x2="42.1105" y2="19.6866" gradientUnits="userSpaceOnUse">
<stop stop-color="#8000FF"/>
<stop offset="1" stop-color="#CC00FF"/>
</linearGradient>
<linearGradient id="paint6_linear" x1="30.3962" y1="21.102" x2="40.8569" y2="31.2403" gradientUnits="userSpaceOnUse">
<stop stop-color="#8000FF"/>
<stop offset="1" stop-color="#CC00FF"/>
</linearGradient>
</defs>
</svg>
