<svg width="122" height="122" viewBox="0 0 122 122" fill="none" xmlns="http://www.w3.org/2000/svg">
<g clip-path="url(#clip0)">
<path d="M42.9878 65.2698C42.5061 65.1209 41.9834 65.2365 41.6111 65.5734L32.6771 73.6374C32.1998 74.0414 32.077 74.7235 32.3364 75.291L42.2465 96.9512C42.5123 97.5328 43.1307 97.8678 43.7629 97.7728C44.0795 97.7258 44.3621 97.5743 44.5736 97.3561C44.7832 97.1399 44.925 96.8578 44.9642 96.5418L46.0839 87.6209L49.598 85.2005C50.1706 84.8052 50.3759 84.0543 50.079 83.4206C47.4039 77.6992 45.3448 71.9369 43.958 66.2975C43.8372 65.8086 43.4686 65.4175 42.9878 65.2698ZM46.9829 83.5249L43.9306 85.6273C43.5979 85.8575 43.3776 86.2205 43.3259 86.6235L42.7522 91.1938L35.3714 75.062L41.7826 69.2737C43.0819 73.9916 44.8258 78.7707 46.9829 83.5249Z" fill="url(#paint0_linear)"/>
<path d="M89.0519 72.8408L79.8445 65.0323C79.4587 64.7061 78.9323 64.6055 78.4558 64.7678C77.9804 64.9293 77.6243 65.3295 77.5216 65.8222C76.3279 71.4992 74.4685 77.316 71.991 83.1101C71.7158 83.7498 71.945 84.4968 72.5329 84.8755L76.1283 87.1953L77.5524 96.0793C77.6543 96.7107 78.1611 97.1998 78.7963 97.2768C79.2491 97.3321 79.6891 97.1681 79.993 96.8545C80.1142 96.7295 80.2129 96.5804 80.2867 96.4137L89.4489 74.4837C89.6889 73.9094 89.5277 73.2444 89.0519 72.8408ZM79.5798 90.6718L78.8495 86.12C78.7851 85.7195 78.5526 85.363 78.21 85.1424L75.088 83.1282C77.0819 78.3144 78.6601 73.4892 79.7968 68.737L86.4035 74.339L79.5798 90.6718Z" fill="url(#paint1_linear)"/>
<path d="M59.6524 61.6726L52.959 68.5788C52.5984 68.9508 52.4692 69.4895 52.6192 69.9868L59.8405 93.7959C60.0291 94.4159 60.6124 94.8343 61.2592 94.8131C61.6381 94.8006 61.9861 94.6391 62.2365 94.3807C62.4133 94.1982 62.5428 93.968 62.601 93.7064L68.2423 68.9685C68.3533 68.4817 68.202 67.9712 67.8422 67.6226L61.6737 61.6442C61.1064 61.094 60.2007 61.1069 59.6524 61.6726ZM65.2768 69.1112L61.0119 87.8148L55.5994 69.9708L55.5983 69.9697L60.7151 64.6902L65.2768 69.1112Z" fill="url(#paint2_linear)"/>
<path d="M60.5477 1.01214C60.0064 0.569001 59.2261 0.579916 58.7001 1.03827C58.3436 1.35265 23.2673 32.8149 47.4892 84.6234C47.7286 85.1357 48.2445 85.4589 48.8086 85.4509L58.4204 85.315C58.8712 85.3086 59.286 85.0904 59.5538 84.7278C59.8165 84.3642 59.8935 83.8981 59.7617 83.4682L55.6015 69.9667L60.7154 64.6902L65.2892 69.123L62.293 83.5163C62.2053 83.9421 62.315 84.3844 62.5917 84.7201C62.8685 85.0559 63.2831 85.2472 63.7178 85.241L73.3296 85.1051C73.7158 85.0996 74.0739 84.9398 74.3332 84.6723C74.4524 84.5493 74.551 84.4045 74.62 84.2407C97.0535 31.7695 60.9159 1.31331 60.5477 1.01214ZM73.5763 24.0669C79.016 36.314 83.1735 56.3047 72.3507 82.2603L65.4575 82.3578L68.2501 68.9438C68.349 68.4633 68.1959 67.965 67.8433 67.6233L61.6749 61.645C61.1074 61.095 60.2017 61.1078 59.6534 61.6736L52.958 68.5818C52.5955 68.9559 52.4672 69.4976 52.6203 69.9958L56.469 82.4858L49.6901 82.5806C29.3028 37.9491 54.4555 9.30999 59.6811 4.06835C62.1154 6.35401 68.7558 13.2151 73.5763 24.0669Z" fill="url(#paint3_linear)"/>
<path d="M62.4236 87.9528C61.9119 87.8884 61.4243 88.1034 61.1245 88.4868C60.8097 88.1121 60.3159 87.9119 59.8077 87.9898C57.1378 88.3996 54.815 90.0165 53.4319 92.4268C51.9654 94.9869 51.7426 98.0269 52.8238 100.768L60.323 119.788C60.5418 120.344 61.0819 120.706 61.6771 120.697C62.0642 120.692 62.4223 120.53 62.6806 120.264C62.8198 120.12 62.929 119.946 62.9994 119.75L69.8414 100.527C70.8281 97.7579 70.5011 94.7257 68.9476 92.2083C67.4855 89.8392 65.1074 88.2878 62.4236 87.9528ZM66.5165 93.7045C67.6115 95.4774 67.8413 97.6122 67.1489 99.5609L61.5828 115.197L55.4821 99.725C54.7222 97.7978 54.8795 95.6564 55.9133 93.8536C56.1852 93.3796 56.5083 92.9515 56.8739 92.5743C57.4927 91.9357 58.2344 91.4441 59.052 91.1333L59.8387 93.788C60.021 94.4041 60.5925 94.8246 61.2342 94.8146C61.878 94.8066 62.4336 94.369 62.5938 93.749L63.288 91.0723C64.6019 91.531 65.7419 92.4508 66.5165 93.7045Z" fill="url(#paint4_linear)"/>
<path d="M60.5485 1.01277C60.0072 0.569626 59.2268 0.580664 58.7009 1.0389C58.2816 1.40771 48.3512 10.2097 42.6844 26.3877C42.5292 26.8275 42.6012 27.3168 42.8747 27.6972C43.1481 28.0775 43.5907 28.2996 44.0576 28.293L76.1176 27.8396C76.4997 27.8342 76.8599 27.6764 77.1212 27.4068C77.1797 27.3464 77.2332 27.2808 77.2815 27.2105C77.5418 26.8226 77.5961 26.3326 77.4267 25.8962C71.2086 9.88537 60.9802 1.36753 60.5485 1.01277ZM73.9824 25.0089L46.0947 25.4032C50.5593 13.8662 57.2634 6.47161 59.6778 4.06288C62.1756 6.40427 69.1146 13.5767 73.9824 25.0089Z" fill="url(#paint5_linear)"/>
<path d="M60.1558 32.0185C53.3576 32.1146 47.923 37.7221 48.0396 44.5199C48.1562 51.3178 53.7806 56.7688 60.5788 56.6727C63.9779 56.6256 67.0359 55.1985 69.2292 52.9354C71.4236 50.6712 72.7523 47.5702 72.6949 44.1713C72.5783 37.3735 66.9538 31.9223 60.1558 32.0185ZM69.8366 44.2116C69.9262 49.4327 65.7511 53.7405 60.5297 53.8144C55.3084 53.8882 50.9875 49.7005 50.8979 44.4794C50.8532 41.8698 51.8748 39.4868 53.5596 37.7484C55.2444 36.0101 57.5943 34.9144 60.2049 34.8765C65.4261 34.8028 69.747 38.9905 69.8366 44.2116Z" fill="url(#paint6_linear)"/>
</g>
<defs>
<linearGradient id="paint0_linear" x1="33.7723" y1="72.4981" x2="51.7648" y2="89.9362" gradientUnits="userSpaceOnUse">
<stop stop-color="#8000FF"/>
<stop offset="1" stop-color="#CC00FF"/>
</linearGradient>
<linearGradient id="paint1_linear" x1="70.751" y1="72.4924" x2="87.6917" y2="88.911" gradientUnits="userSpaceOnUse">
<stop stop-color="#8000FF"/>
<stop offset="1" stop-color="#CC00FF"/>
</linearGradient>
<linearGradient id="paint2_linear" x1="52.1052" y1="69.4597" x2="69.7837" y2="86.5935" gradientUnits="userSpaceOnUse">
<stop stop-color="#8000FF"/>
<stop offset="1" stop-color="#CC00FF"/>
</linearGradient>
<linearGradient id="paint3_linear" x1="35.5017" y1="24.9015" x2="85.3958" y2="73.258" gradientUnits="userSpaceOnUse">
<stop stop-color="#8000FF"/>
<stop offset="1" stop-color="#CC00FF"/>
</linearGradient>
<linearGradient id="paint4_linear" x1="51.9243" y1="93.5667" x2="70.8128" y2="111.873" gradientUnits="userSpaceOnUse">
<stop stop-color="#8000FF"/>
<stop offset="1" stop-color="#CC00FF"/>
</linearGradient>
<linearGradient id="paint5_linear" x1="48.6266" y1="11.3305" x2="71.3539" y2="33.3574" gradientUnits="userSpaceOnUse">
<stop stop-color="#8000FF"/>
<stop offset="1" stop-color="#CC00FF"/>
</linearGradient>
<linearGradient id="paint6_linear" x1="51.5046" y1="35.7561" x2="69.2297" y2="52.9349" gradientUnits="userSpaceOnUse">
<stop stop-color="#8000FF"/>
<stop offset="1" stop-color="#CC00FF"/>
</linearGradient>
<clipPath id="clip0">
<rect width="85.6478" height="85.9064" fill="white" transform="translate(0 61.5024) rotate(-45.8966)"/>
</clipPath>
</defs>
</svg>
