<svg width="60" height="60" viewBox="0 0 60 60" fill="none" xmlns="http://www.w3.org/2000/svg">
<g clip-path="url(#clip0)">
<path d="M30 60C46.5685 60 60 46.5685 60 30C60 13.4315 46.5685 0 30 0C13.4315 0 0 13.4315 0 30C0 46.5685 13.4315 60 30 60Z" fill="#F0F0F0"/>
<path d="M58.134 40.4346C59.34 37.1847 60 33.6695 60 29.9999C60 26.3303 59.34 22.8151 58.134 19.5652H1.86598C0.660117 22.8151 0 26.3303 0 29.9999C0 33.6695 0.660117 37.1847 1.86598 40.4346L30 43.0433L58.134 40.4346Z" fill="#0052B4"/>
<path d="M30 60.0001C42.8989 60.0001 53.8952 51.8588 58.134 40.4348H1.86597C6.10476 51.8588 17.101 60.0001 30 60.0001Z" fill="#D80027"/>
</g>
<defs>
<clipPath id="clip0">
<rect width="60" height="60" fill="white"/>
</clipPath>
</defs>
</svg>
